<svg width="914" height="400" fill="none" xmlns="http://www.w3.org/2000/svg"><style>#CL0 {fill: #00ACD7;}#CL1 {fill: #333;}@media (prefers-color-scheme: dark) {#CL0 {fill: #00ACD7;}#CL1 {fill: #CCC;}}</style><path d="M430.798 210.688c-1.914 1.102-4.293 1.654-7.137 1.654-3.153 0-5.642-.871-7.464-2.612-1.814-1.75-2.721-4.156-2.721-7.218 0-3.081.993-5.592 2.98-7.533 1.987-1.942 4.631-2.913 7.93-2.913 2.078 0 3.91.288 5.496.862v4.142c-1.513-.875-3.363-1.312-5.551-1.312-1.832 0-3.326.597-4.484 1.791-1.148 1.185-1.723 2.771-1.723 4.758 0 2.014.515 3.573 1.545 4.675 1.039 1.103 2.438 1.655 4.197 1.655 1.058 0 1.896-.151 2.516-.451v-3.829h-3.924v-3.527h8.34v9.858Zm9.503 1.654c-2.334 0-4.17-.652-5.51-1.955-1.331-1.313-1.996-3.09-1.996-5.332 0-2.315.692-4.125 2.078-5.428 1.385-1.313 3.258-1.969 5.619-1.969 2.324 0 4.147.656 5.469 1.969 1.321 1.303 1.982 3.031 1.982 5.182 0 2.324-.683 4.16-2.051 5.509-1.358 1.349-3.222 2.024-5.591 2.024Zm.109-11.375c-1.021 0-1.814.351-2.379 1.053-.565.701-.848 1.695-.848 2.98 0 2.689 1.085 4.033 3.254 4.033 2.069 0 3.104-1.381 3.104-4.142 0-2.616-1.044-3.924-3.131-3.924Z" id="CL0"/><path d="M466.78 212v-9.174h-10.691V212h-1.818v-19.605h1.818v8.791h10.691v-8.791h1.819V212h-1.819Zm6.891-6.686c.01.857.124 1.627.342 2.311.219.684.533 1.262.944 1.736.41.474.907.839 1.49 1.094.592.246 1.258.369 1.996.369 1.577 0 3.067-.551 4.471-1.654v1.723c-1.34.957-2.963 1.435-4.868 1.435-.938 0-1.791-.164-2.556-.492a5.33 5.33 0 0 1-1.955-1.422c-.538-.629-.953-1.399-1.244-2.31-.292-.912-.438-1.951-.438-3.118 0-1.048.16-2.019.479-2.912.319-.893.761-1.663 1.326-2.31a5.989 5.989 0 0 1 2.01-1.532 5.781 5.781 0 0 1 2.543-.56c.902 0 1.699.159 2.392.478a4.57 4.57 0 0 1 1.736 1.34c.474.584.834 1.295 1.081 2.133.246.839.369 1.777.369 2.816v.875h-10.118Zm8.313-1.531c-.027-1.458-.374-2.588-1.039-3.39-.665-.803-1.591-1.204-2.775-1.204-.593 0-1.144.105-1.655.315-.501.21-.943.515-1.326.916a4.886 4.886 0 0 0-.957 1.449 7.38 7.38 0 0 0-.52 1.914h8.272Zm11.198-10.855c-.392-.255-.898-.383-1.518-.383-1.64 0-2.461 1.071-2.461 3.213V198h3.487v1.531h-3.487V212h-1.75v-12.469h-2.447V198h2.447v-2.352c0-.701.087-1.335.26-1.9a4.111 4.111 0 0 1 .793-1.463c.346-.41.779-.724 1.299-.943.528-.219 1.135-.328 1.818-.328.656 0 1.176.086 1.559.259v1.655Zm7.711 18.908a4.335 4.335 0 0 1-1.968.451c-2.261 0-3.391-1.303-3.391-3.91v-8.846h-2.461V198h2.461v-3.527l1.75-.575V198h3.609v1.531h-3.609v8.573c0 .947.155 1.631.465 2.05.31.42.834.629 1.572.629.547 0 1.071-.164 1.572-.492v1.545Z" id="CL1"/></svg>